<svg xmlns="http://www.w3.org/2000/svg" shape-rendering="geometricPrecision" text-rendering="geometricPrecision" image-rendering="optimizeQuality" fill-rule="evenodd" clip-rule="evenodd" viewBox="0 0 512 476.04"><path fill="#FFFFFF" fill-rule="nonzero" d="M240.27 119.02c2.93-25.96 13.03-49.76 28.26-69.35 18.65-23.99 45.03-41.7 75.43-49.4 2.81-.68 5.9-.08 8.31 1.89 4.04 3.32 4.62 9.28 1.3 13.32-7.38 9-13.29 19.34-17.32 30.64-3.86 10.82-5.97 22.5-5.97 34.68 0 28.47 11.54 54.25 30.19 72.9 18.66 18.66 44.43 30.2 72.9 30.2 11.74 0 23.01-1.96 33.48-5.55 10.77-3.7 20.7-9.09 29.45-15.84a9.484 9.484 0 018.78-1.98c5.04 1.42 7.98 6.65 6.57 11.69-6.93 24.72-20.54 46.66-38.76 63.72-15.95 14.95-35.45 26.17-57.1 32.27.7 6.96.71 14.01-.02 21.02-3.25 31.28-20.92 61.66-57.17 79.44-22.23 10.9-31.92 10.95-53.37 10.93l8.65 15.32-11.13 6.27-9.01-15.96-9.33 15.81-11.03-6.52 8.78-14.87h-66.43l9.43 16.71-11.13 6.26-9.05-16.02-9.28 15.73-11.04-6.52 9.54-16.16h-68.66L135 396.4l-11.13 6.27-9.01-15.95-9.32 15.79L94.51 396l9.64-16.35h-4.24v-.05l-4.95.02c-14.38.09-24.66.15-40.36-6.25-21.36-8.71-37.05-24.65-46-43.43-6.84-14.37-9.73-30.48-8.2-46.35 1.54-15.98 7.58-31.67 18.57-45.07 12.24-14.92 30.52-26.88 55.4-32.92 7.52-29.28 23.35-51.88 43.63-67.61 19.1-14.82 42.12-23.44 65.81-25.73 18.91-1.83 38.29.4 56.46 6.76zm8.19 319.57l18.36.17-9.03-15.98 11.14-6.27 9.01 15.96 9.32-15.8 11.03 6.51-9.31 15.79 18.31.17-.1 12.79-18.36-.17 9.03 15.98-11.13 6.27-9.01-15.96-9.33 15.8-11.03-6.52 9.32-15.78-18.32-.17.1-12.79zm-104.82 2.03l18.36.18-9.02-15.98 11.13-6.27 9.01 15.95 9.32-15.8 11.03 6.52-9.32 15.78 18.32.18-.1 12.79-18.36-.18 9.03 15.99-11.13 6.26-9.01-15.95-9.33 15.8-11.03-6.52 9.32-15.79-18.32-.17.1-12.79zM41.92 429.88l18.36.17-9.03-15.98 11.13-6.26 9.01 15.95 9.33-15.8 11.03 6.52-9.32 15.78 18.32.18-.11 12.78-18.35-.17 9.02 15.98-11.13 6.27-9.01-15.96-9.32 15.81-11.03-6.52 9.31-15.79-18.31-.17.1-12.79z"/><path fill="#E5C640" d="M414.41 258.75c42.62-12.46 76.12-46.28 88.11-89.09-19.08 14.87-43.08 23.73-69.15 23.73-62.18 0-112.59-50.41-112.59-112.59 0-27.07 9.56-51.91 25.48-71.33-52.18 13.22-91.7 58.2-96.81 113.15 1.33.58 2.65 1.19 3.95 1.82 23.57 11.31 44.14 30.06 57.61 56.4 30.71-4.47 56.65 5.99 75.21 24.29 10.81 10.65 19.03 23.98 24.12 38.5 1.72 4.92 3.08 9.98 4.07 15.12z"/><path fill="#FEDC47" d="M286.61 147.6c-.4-24.55 5.64-49.53 18.82-72.35 5.73-9.93 12.5-18.9 20.08-26.84 4.32-14.41 11.45-27.6 20.75-38.94-52.18 13.22-91.7 58.2-96.81 113.15 1.33.58 2.65 1.19 3.95 1.82 12.04 5.77 23.29 13.49 33.21 23.16z"/><path fill="#D4D1D1" d="M318.06 193.68c84.66-7.06 122.38 119.81 34.6 162.86-20.5 10.05-29.07 9.54-50.75 9.54h-202c-15.56 0-25.23.85-40.22-5.27-63.42-25.86-67.58-127.32 25.98-143.73 20.73-109.09 163.5-122.61 212.09-32.28-6.32 2.23-12.43 5.12-18.25 8.56-12.31 7.29-23.34 17.14-32.24 28.73a6.771 6.771 0 001.27 9.49c2.97 2.26 7.22 1.7 9.49-1.27 7.83-10.21 17.54-18.87 28.37-25.28 9.84-5.83 20.59-9.8 31.66-11.35z"/><path fill="#ECE8E8" d="M318.37 193.63c22.48-1.79 41.63 5.88 55.98 18.89 12.91 43.57-5.69 97.92-73.63 113.7H55.4c-15.92-2.03-29.3-8.22-39.8-16.99-9.03-37.69 11.11-81.81 70.07-92.15 20.72-109.09 163.5-122.61 212.1-32.28-6.33 2.23-12.44 5.12-18.26 8.56-12.31 7.29-23.34 17.14-32.24 28.73a6.771 6.771 0 001.27 9.49c2.97 2.26 7.22 1.7 9.49-1.27 7.83-10.21 17.54-18.87 28.37-25.28 9.94-5.89 20.79-9.87 31.97-11.4z"/><path fill="#fff" d="M263.28 179.65c.68-36.03-86.38-57.9-122.38-1.13 38.99-22.56 85.79-22.47 122.38 1.13z"/></svg>